<svg xmlns="http://www.w3.org/2000/svg"
shape-rendering="geometricPrecision"
width="4000" height="4000" viewBox="0 0 1024 1024">
  <metadata>null</metadata>

<path d="
M 120.816 559.776
C 133.528 559.34 146.293 559.406 159.013 559.576
C 168.008 559.697 177.534 559.55 185.846 563.526
C 198.505 569.583 203.705 586.488 196.269 598.581
C 193.559 602.987 189.996 605.03 185.665 607.523
C 185.864 608.306 187.331 608.429 188.085 608.75
C 190.377 609.725 192.615 610.632 194.646 612.106
C 199.803 615.849 202.6 621.346 203.629 627.559
C 204.187 630.928 204.259 634.771 203.414 638.095
C 202.639 641.144 201.901 643.895 200.268 646.631
C 190.587 662.857 169.846 661.232 153.497 661.232
C 148.498 661.232 143.498 661.226 138.498 661.221
C 132.58 661.215 126.589 661.442 120.684 661.136
C 120.85 627.354 120.265 593.557 120.816 559.776 Z
M 141.484 641.625
C 141.476 642.153 141.462 642.672 141.422 643.199
C 148.271 643.434 155.151 643.26 162.006 643.312
C 166.759 643.347 172.061 643.667 176.415 641.424
C 185.031 636.985 184.407 623.639 175.804 619.488
C 171.829 617.571 167.163 617.785 162.866 617.799
C 155.802 617.823 148.742 618.091 141.686 618.154
C 141.691 623.268 141.63 628.381 141.585 633.497
C 141.562 636.131 141.926 639.029 141.484 641.625 Z
M 141.864 577.468
C 141.805 577.591 141.747 577.714 141.688 577.837
C 142.139 583.664 141.577 589.654 141.61 595.501
C 141.617 596.807 141.029 600.533 141.917 601.43
C 148.692 600.877 155.694 601.636 162.505 601.462
C 166.596 601.358 170.57 601.293 174.155 599.038
C 180.879 594.809 180.497 583.417 173.57 579.69
C 169.613 577.56 165.163 577.531 160.776 577.371
C 154.485 577.14 148.152 577.189 141.864 577.468 Z"
opacity="1" fill="rgb(15,38,74)" fill-rule="evenodd" />
<path d="
M 213.963 618.096
C 215.912 606.382 221.283 595.998 231.5 589.42
C 243.648 581.599 261.26 581.961 272.822 590.701
C 278.581 595.056 282.768 601.466 284.937 608.313
C 287.002 614.831 287.824 622.285 287.055 629.082
C 286.455 629.635 284.329 629.25 283.5 629.251
C 280.169 629.255 276.836 629.342 273.505 629.406
C 264.508 629.579 255.506 629.465 246.507 629.473
C 242.369 629.477 237.647 628.849 233.583 629.572
C 233.83 632.002 234.348 634.359 235.477 636.541
C 236.423 638.368 237.734 640.132 239.217 641.554
C 245.163 647.26 254.469 647.704 261.797 644.677
C 265.257 643.247 268.277 640.769 271.022 638.278
C 271.855 638.129 272.964 639.65 273.605 640.225
C 275.944 642.325 278.524 644.268 281.069 646.111
C 281.604 646.499 283.793 647.82 283.737 648.416
C 283.372 649.047 282.489 649.548 281.946 650.035
C 280.417 651.405 278.998 652.884 277.419 654.2
C 264.051 665.344 243.237 666.075 229.176 655.652
C 217.404 646.927 212.222 632.455 213.963 618.096 Z
M 233.458 616.104
C 233.405 616.315 233.351 616.526 233.297 616.737
C 237.407 617.274 241.859 616.903 246.005 616.913
C 253.133 616.93 260.296 617.053 267.42 616.864
C 267.664 604.065 253.99 595.984 242.832 601.721
C 237.029 604.705 235.027 610.234 233.458 616.104 Z"
opacity="1" fill="rgb(15,38,74)" fill-rule="evenodd" />
<path d="
M 268.755 485.423
C 282.325 480.096 296.835 476.591 311.067 473.53
C 328.161 469.852 345.181 466.2 362.359 462.914
C 414.339 452.97 467.635 448.793 520.507 448.715
C 559.337 448.658 598.563 450.452 636.93 456.774
C 667.597 461.827 698.664 466.644 728.26 476.491
C 735.189 478.796 742.21 480.802 749.093 483.255
C 750.495 483.755 755.725 484.864 755.002 486.671
C 752.475 487.4 749.793 487.297 747.19 487.459
C 741.797 487.794 736.36 487.58 730.966 487.352
C 725.218 487.109 719.457 486.949 713.707 486.768
C 710.893 486.68 707.886 486.969 705.122 486.434
C 692.298 483.952 679.712 480.539 666.791 478.425
C 661.787 477.606 656.41 476.152 651.327 476.249
C 651.877 483.222 652.325 490.203 652.862 497.173
C 652.986 498.787 653.201 500.397 653.237 502.017
C 653.247 502.465 653.377 503.663 652.937 503.88
C 646.435 504.006 640.083 504.231 633.562 503.843
C 633.061 502.392 633.292 500.528 633.279 499.006
C 633.25 495.864 633.246 492.721 633.177 489.579
C 633.145 488.111 633.325 486.335 632.716 484.96
C 632.013 483.37 630.222 482.378 628.736 481.648
C 624.059 479.351 614.747 480.261 612.313 485.629
C 611.745 486.882 611.876 488.493 611.836 489.837
C 611.749 492.795 611.762 495.763 611.793 498.721
C 611.809 500.198 612.073 501.805 611.399 503.171
C 610.118 504.103 608.103 503.829 606.595 503.844
C 602.568 503.885 598.565 503.963 594.558 503.487
C 593.699 500.29 594.768 495.756 595.053 492.469
C 595.703 484.984 596.458 477.328 596.6 469.827
C 589.679 468.775 582.491 469.198 575.519 468.601
C 565.364 467.732 555.172 468.073 545.007 467.551
C 536.306 467.105 527.354 467.119 518.645 467.472
C 513.711 467.672 508.754 467.605 503.813 467.746
C 500.985 467.826 497.983 468.254 495.181 468.114
C 496.62 482.854 497.062 497.842 497.913 512.627
C 498.117 516.171 498.159 519.777 498.519 523.309
C 498.635 524.439 499.132 526.865 498.365 527.787
C 488.388 529.219 478.43 528.647 468.391 529.014
C 467.944 527.637 468.15 525.945 468.145 524.505
C 468.133 521.506 468.183 518.505 468.223 515.507
C 468.354 505.71 468.756 495.791 467.953 486.035
C 462.903 481.493 453.81 482.141 447.635 483.633
C 445.101 484.245 441.941 485.15 440.936 487.845
C 439.655 491.279 440.345 495.893 440.318 499.503
C 440.254 508.187 440.997 517.273 439.877 525.894
C 438.546 527.462 434.737 527.137 432.893 527.19
C 426.614 527.37 420.266 527.449 414.016 526.895
C 413.388 526.02 413.772 524.077 413.812 523.017
C 413.936 519.672 414.331 516.324 414.602 512.99
C 415.646 500.168 416.433 487.292 417.292 474.468
C 416.912 474.25 415.569 474.628 415.093 474.675
C 413.071 474.874 411.065 475.112 409.047 475.352
C 401.044 476.307 393.051 477.295 385.099 478.617
C 375.647 480.188 366.248 481.827 356.878 483.84
C 352.318 484.819 347.613 486.694 342.961 487.041
C 339.082 487.33 335.131 485.583 331.161 485.57
C 326.792 485.557 322.486 486.367 318.144 486.717
C 312.973 487.133 307.788 487.239 302.604 487.408
C 293.91 487.691 285.204 488.06 276.502 487.793
C 274.438 487.73 272.394 487.614 270.385 487.095
C 269.465 486.857 268.337 486.62 268.755 485.423 Z"
opacity="1" fill="rgb(15,37,73)" fill-rule="evenodd" />
<path d="
M 299.974 587.611
C 300.023 586.953 300.079 586.299 300.108 585.64
C 304.236 585.516 308.378 585.706 312.508 585.751
C 314.606 585.773 317.129 585.417 319.163 585.871
C 319.625 589.139 318.426 592.968 319.501 596.114
C 320.272 595.734 320.753 594.734 321.276 594.074
C 322.274 592.816 323.498 591.664 324.692 590.596
C 328.11 587.538 332.191 585.659 336.639 584.636
C 347.03 582.248 358.733 585.453 364.765 594.672
C 366.405 597.178 367.516 600.024 368.293 602.908
C 370.002 609.251 369.519 616.102 369.58 622.608
C 369.701 635.452 369.006 648.417 369.622 661.243
C 367.321 661.747 364.356 661.254 361.998 661.251
C 358.108 661.247 353.614 661.828 349.791 661.142
C 349.91 648.605 349.635 636.05 349.733 623.507
C 349.784 617.033 350.189 609.772 345.119 604.897
C 337.343 597.419 325.185 603.293 321.114 611.57
C 319.16 615.543 319.603 620.345 319.593 624.658
C 319.574 632.438 319.667 640.219 319.619 648
C 319.6 651.167 319.559 654.336 319.61 657.503
C 319.626 658.549 319.392 660.176 319.705 661.146
C 317.125 660.873 314.265 661.156 311.657 661.193
C 307.687 661.249 303.703 661.1 299.737 661.216
C 299.085 651.066 299.74 640.68 299.759 630.505
C 299.785 616.231 299.401 601.874 299.974 587.611 Z"
opacity="1" fill="rgb(15,38,74)" fill-rule="evenodd" />
<path d="
M 571.821 429.898
C 573.58 430.774 575.998 430.957 577.924 431.423
C 584.54 433.182 593.575 432.236 599.447 428.541
C 600.261 427.467 599.849 424.953 599.974 423.633
C 600.404 419.09 600.096 414.494 600.571 409.965
C 600.687 407.562 600.7 405.229 600.638 402.834
C 601.619 399.529 602.056 396.258 602.433 392.843
C 602.629 391.071 602.601 388.695 603.396 387.082
C 604.915 384.002 609.142 383.067 611.375 385.899
C 612.399 387.197 612.502 389.154 612.676 390.738
C 614.122 391.181 616.348 390.477 617.86 390.344
C 622.823 389.908 627.916 389.31 632.721 387.974
C 633.527 387.08 633.054 385.196 633.391 384.057
C 634.195 381.341 638.117 378.038 640.973 379.773
C 643.332 381.206 643.08 385.908 643.452 388.308
C 643.748 390.223 643.811 392.61 644.552 394.403
C 645.89 397.641 648.124 400.789 649.908 403.805
C 658.466 418.274 667.688 432.193 678.904 444.779
C 682.738 449.081 686.972 453.327 691.247 457.192
C 692.645 458.456 694.058 459.709 695.467 460.96
C 695.952 461.391 697.103 462.22 697.336 462.818
C 693.173 461.723 688.237 460.854 684.507 458.599
C 681.332 456.678 678.658 453.565 676.048 450.957
C 669.799 444.709 663.909 437.753 658.777 430.558
C 656.01 426.679 653.167 422.89 650.607 418.869
C 649.345 416.887 648.327 414.168 646.316 412.844
C 646.717 426.182 647.985 439.513 649.292 452.769
C 645.485 451.504 640.873 451.23 636.901 450.638
C 635.572 450.44 634.025 450.599 632.762 450.18
C 632.864 444.922 632.322 439.4 632.878 434.176
C 629.063 431.001 624.865 427.145 621.971 423.065
C 618.739 425.397 615.433 427.932 612.356 430.473
C 611.428 434.549 612.295 439.474 612.048 443.675
C 611.976 444.888 612.195 446.412 611.737 447.548
C 609.381 447.652 607.012 447.018 604.67 446.834
C 602.599 446.672 600.178 446.869 598.186 446.315
C 598.249 443.951 599.107 440.223 598.193 438.016
C 591.123 439.899 584.376 440.817 577.04 440.123
C 573.219 439.761 569.408 438.326 565.616 438.154
C 563.633 438.065 561.609 438.595 559.631 438.748
C 556.684 438.976 553.689 438.956 550.737 438.866
C 542.007 438.597 532.897 436.503 524.694 433.586
C 515.809 430.426 507.486 426.015 499.408 421.188
C 497.484 420.038 495.534 418.939 493.707 417.637
C 492.972 417.113 492.073 416.262 491.401 416.987
C 491.643 425.589 492.488 434.177 492.714 442.786
C 484.918 442.935 476.896 444.335 469.117 443.85
C 468.657 439.67 469.067 435.204 469.187 431.002
C 469.373 424.46 469.426 417.91 469.539 411.366
C 469.584 408.743 469.686 406.124 469.757 403.503
C 469.79 402.295 470.05 400.802 469.764 399.62
C 469.443 398.295 467.547 396.933 466.627 395.984
C 464.053 393.326 461.521 390.623 459.045 387.875
C 456.792 385.374 454.669 382.772 452.445 380.249
C 451.726 379.433 450.602 377.712 449.551 377.513
C 447.081 379.54 444.319 381.756 442.147 384.099
C 441.324 385.692 441.503 388.152 441.447 389.938
C 441.316 394.122 441.383 398.319 441.365 402.505
C 441.301 416.9 442.041 431.586 440.894 445.936
C 433.67 446.322 426.555 447.894 419.378 448.601
C 420.091 445.955 419.729 442.794 419.964 440.061
C 420.483 434.037 420.922 428.008 421.443 421.985
C 422.101 414.39 422.782 406.798 423.373 399.196
C 423.689 395.135 424.589 390.637 424.244 386.584
C 416.192 395.658 408.94 405.391 400.617 414.248
C 387.653 428.043 373.154 440.506 357.562 451.222
C 353.035 454.333 348.36 457.874 343.372 460.21
C 338.85 462.327 333.805 463.255 328.96 464.306
C 325.708 465.011 322.46 465.807 319.236 466.63
C 317.797 466.997 316.307 467.344 314.849 467.624
C 314.607 467.67 313.766 467.723 313.907 467.392
C 317.265 465.298 321.076 463.937 324.538 462
C 331.752 457.965 338.774 453.525 345.661 448.955
C 369.591 433.077 391.949 413.157 409.343 390.254
C 413.307 385.034 417.214 379.817 421.081 374.522
C 423.032 371.85 425.394 369.33 426.277 366.073
C 427.031 363.291 427.053 360.18 427.295 357.313
C 427.552 354.274 428.037 351.258 428.256 348.216
C 428.482 345.061 428.299 341.756 430.097 339.002
C 430.949 337.697 432.3 335.606 433.946 335.259
C 436.32 334.76 439.948 336.952 441.951 338.092
C 442.36 338.705 442.237 339.921 442.25 340.661
C 442.284 342.529 442.402 344.404 442.375 346.271
C 444.482 346.615 447.437 345.368 449.531 344.992
C 454.407 344.118 459.231 342.881 464.057 341.773
C 465.923 341.345 468.623 341.227 470.29 340.332
C 470.634 337.439 470.195 333.669 471.115 330.909
C 471.359 330.177 472.246 329.574 472.758 329.033
C 474.221 327.487 475.533 325.082 477.536 324.228
C 478.632 324.339 479.557 324.698 480.499 325.263
C 481.645 325.95 483.231 326.736 484.019 327.85
C 484.765 328.907 484.676 331.026 484.797 332.277
C 485.108 335.516 485.04 339.364 486.038 342.464
C 487.305 346.4 490.597 350.517 492.85 353.973
C 503.298 369.997 514.685 385.482 527.946 399.308
C 534.278 405.91 540.828 412.781 548.44 417.926
C 553.882 421.603 558.951 425.582 565.079 428.123
C 567.187 428.998 569.473 430.132 571.821 429.898 Z
M 447.57 358.794
C 449.001 361.648 451.137 364.063 453.07 366.583
C 456.476 371.022 459.993 375.286 463.594 379.565
C 465.008 381.245 466.435 382.832 468.102 384.272
C 468.417 384.543 469.379 385.637 469.746 385.522
C 470.253 381.406 470.041 377.139 470.072 372.996
C 470.116 366.939 470.3 360.88 470.38 354.824
C 468.167 354.507 465.497 355.408 463.303 355.725
C 457.976 356.497 452.821 357.773 447.57 358.794 Z
M 487.94 364.513
C 488.397 374.36 488.919 384.197 489.642 394.022
C 489.832 396.606 490.096 399.211 490.21 401.794
C 490.255 402.824 489.956 404.519 490.6 405.366
C 493.289 407.019 495.705 409.201 498.273 411.044
C 502.373 413.988 506.786 416.711 511.157 419.233
C 524.702 427.052 540.326 432.715 555.998 433.562
C 554.673 431.604 551.144 430.283 549.163 429.048
C 544.396 426.077 539.961 422.677 535.667 419.059
C 523.891 409.136 513.559 397.37 503.906 385.423
C 499.825 380.371 496 375.162 492.099 369.976
C 491.107 368.657 489.402 365.038 487.94 364.513 Z
M 612.991 413.608
C 612.731 415.552 612.891 417.468 613.161 419.396
C 614.059 419.309 616.58 416.933 616.89 416.088
C 616.65 414.281 614.582 411.771 613.346 410.488
C 613.168 411.53 613.229 412.573 612.991 413.608 Z
M 615.829 400.436
C 617.442 404.349 619.906 407.864 622.028 411.5
C 624.946 408.543 627.125 404.442 629.421 400.992
C 629.69 400.588 631.599 398.191 631.319 397.821
C 628.048 398.886 623.825 398.84 620.387 399.291
C 618.882 399.488 617.126 399.609 615.829 400.436 Z
M 627.443 417.554
C 627.341 417.72 627.239 417.885 627.137 418.051
C 628.382 420.145 630.193 423.699 632.097 425.174
C 632.888 420.887 632.377 416.203 632.18 411.876
C 630.422 413.321 628.598 415.599 627.443 417.554 Z"
opacity="1" fill="rgb(14,37,73)" fill-rule="evenodd" />
<path d="
M 381.93 617.603
C 383.575 607.798 387.846 598.702 395.609 592.217
C 409.34 580.747 431.897 580.928 444.381 594.244
C 451.198 601.515 454.289 611.146 455.049 620.887
C 455.217 623.039 455.226 625.204 455.29 627.36
C 455.303 627.765 455.469 629.164 455.178 629.44
C 453.581 629.712 451.636 629.428 450.007 629.415
C 446.517 629.387 443.026 629.441 439.535 629.449
C 426.839 629.477 413.977 629.024 401.308 629.808
C 401.781 632.773 402.398 635.377 403.972 637.977
C 411.856 650.998 430.021 647.944 439.104 638.218
C 440.213 638.675 441.276 640.043 442.202 640.828
C 444.365 642.66 446.574 644.44 448.814 646.175
C 449.349 646.59 452.097 648.237 451.836 648.827
C 449.651 652.031 445.311 654.964 442.034 656.964
C 426.752 666.291 406.123 665.058 392.869 652.55
C 383.397 643.612 380.371 630.151 381.93 617.603 Z
M 401.453 614.586
C 401.28 615.292 401.129 615.998 401.018 616.717
C 401.912 617.157 403.334 616.985 404.349 616.992
C 406.627 617.007 408.904 617.017 411.182 617.01
C 419.262 616.988 427.362 617.016 435.443 616.884
C 436.2 604.595 422.337 596.681 411.724 601.218
C 405.696 603.794 403.576 608.922 401.453 614.586 Z"
opacity="1" fill="rgb(15,38,74)" fill-rule="evenodd" />
<path d="
M 468.439 559.888
C 469.314 558.949 472.834 559.506 474.096 559.504
C 479.401 559.498 484.706 559.493 490.011 559.511
C 493.51 559.523 497.01 559.549 500.51 559.562
C 515.08 559.615 534.967 557.934 543.882 572.356
C 545.234 574.542 546.183 576.809 546.875 579.281
C 548.949 586.68 547.128 595.534 542.081 601.354
C 540.06 603.685 537.838 605.062 535.269 606.665
C 534.506 607.141 533.097 607.635 533.155 608.546
C 536.351 609.311 539.32 610.672 542.035 612.535
C 556.912 622.746 554.046 646.478 539.653 655.514
C 530.942 660.983 520.397 661.276 510.43 661.241
C 501.286 661.208 492.142 661.226 482.998 661.235
C 478.218 661.24 473.308 660.91 468.544 661.286
C 467.612 659.014 468.378 654.96 468.374 652.498
C 468.361 645.498 468.367 638.498 468.36 631.498
C 468.337 607.634 468.028 583.747 468.439 559.888 Z
M 489.415 577.519
C 489.351 577.58 489.287 577.641 489.223 577.702
C 489.355 585.514 489.978 593.76 489.298 601.536
C 496.08 601.567 502.869 601.707 509.653 601.579
C 513.224 601.512 517.297 601.71 520.549 600.019
C 528.713 595.775 529.001 583.72 520.751 579.394
C 516.837 577.341 512.097 577.502 507.782 577.456
C 501.712 577.392 495.467 577.063 489.415 577.519 Z
M 489.374 618.18
C 489.434 623.947 489.287 629.73 489.297 635.501
C 489.301 638.046 489.016 640.874 489.411 643.382
C 496.697 642.993 504.038 643.327 511.333 643.283
C 515.912 643.255 520.57 643.441 524.733 641.225
C 532.957 636.846 531.991 624.26 524.195 620.056
C 520.21 617.907 515.482 617.962 511.084 617.953
C 503.862 617.939 496.582 618.352 489.374 618.18 Z"
opacity="1" fill="rgb(15,38,74)" fill-rule="evenodd" />
<path d="
M 565.463 589.618
C 565.602 588.338 565.593 587.051 565.739 585.77
C 570.494 585.767 575.251 585.734 580.007 585.775
C 581.088 585.784 584.116 585.306 584.888 585.961
C 584.904 590.424 585.138 594.927 585.003 599.389
C 585.706 599.14 586.209 597.366 586.535 596.726
C 587.489 594.847 588.898 593.221 590.392 591.744
C 595.876 586.322 602.251 583.973 609.879 584.001
C 609.683 590.858 609.49 597.979 609.831 604.827
C 599.546 603.824 589.794 607.576 586.251 618.001
C 584.603 622.85 585.326 628.462 585.29 633.501
C 585.225 642.732 584.955 652.053 585.279 661.273
C 580.537 661.049 575.717 661.259 570.966 661.236
C 569.242 661.228 566.88 661.726 565.252 661.218
C 565.66 644.164 565.257 627.064 565.307 610.004
C 565.327 603.239 565.019 596.369 565.463 589.618 Z"
opacity="1" fill="rgb(15,38,74)" fill-rule="evenodd" />
<path d="
M 571.821 429.898
C 576.531 427.417 580.098 424.259 584.062 420.749
C 588.78 416.571 593.308 412.355 597.419 407.562
C 598.67 406.102 599.417 404.311 600.638 402.834
C 600.7 405.229 600.687 407.562 600.571 409.965
C 599.768 408.327 598.693 410.939 598.058 411.848
C 595.678 415.255 592.723 417.864 589.652 420.621
C 586.772 423.26 583.863 425.863 580.924 428.437
C 580.088 429.169 578.156 430.365 577.924 431.423
C 575.998 430.957 573.58 430.774 571.821 429.898 Z"
opacity="1" fill="rgb(144,159,180)" fill-rule="evenodd" />
<path d="
M 619.885 562.59
C 621.898 550.577 640.71 550.378 642.976 562.326
C 643.246 563.749 643.328 565.172 643.069 566.604
C 642.466 569.933 640.697 572.843 637.69 574.515
C 631.535 577.938 621.949 575.414 620.139 568.087
C 619.701 566.314 619.583 564.396 619.885 562.59 Z"
opacity="1" fill="rgb(14,37,73)" fill-rule="evenodd" />
<path d="
M 621.473 631.119
C 621.836 627.3 621.549 623.328 621.563 619.491
C 621.592 611.828 621.589 604.164 621.612 596.501
C 621.622 592.994 621.402 589.336 621.787 585.851
C 628.273 585.782 634.774 585.795 641.261 585.874
C 642.064 591.674 641.252 598.142 641.254 604.004
C 641.259 616.67 641.234 629.335 641.234 642.001
C 641.234 646.335 641.218 650.668 641.229 655.002
C 641.233 656.838 640.783 659.464 641.253 661.208
C 634.856 660.701 628.049 661.075 621.629 661.255
C 621.032 657.585 621.551 653.41 621.565 649.688
C 621.589 643.498 621.288 637.31 621.473 631.119 Z"
opacity="1" fill="rgb(15,38,74)" fill-rule="evenodd" />
<path d="
M 654.428 618.1
C 655.645 611.333 657.111 604.869 660.944 599.015
C 668.16 587.996 682.267 581.393 695.27 584.71
C 699.364 585.754 703.261 587.345 706.557 590.041
C 707.885 591.127 709.17 592.347 710.302 593.638
C 710.655 594.041 711.052 594.868 711.57 595.046
C 712.283 590.76 711.568 585.624 711.563 581.258
C 711.551 572.592 711.767 563.914 711.698 555.251
C 718.18 554.575 724.812 555.067 731.316 555.046
C 731.829 562.973 731.387 571.07 731.41 579.016
C 731.464 596.846 731.321 614.676 731.313 632.506
C 731.309 639.007 731.36 645.509 731.359 652.011
C 731.358 654.94 730.822 658.29 731.259 661.168
C 724.8 660.746 718.191 661.143 711.715 661.106
C 711.689 658.643 711.766 656.159 711.67 653.698
C 711.64 652.924 712.075 650.91 711.136 651.266
C 709.202 655.037 705.644 657.715 701.991 659.683
C 691.789 665.178 679.08 663.985 669.721 657.213
C 657.73 648.536 652.483 632.509 654.428 618.1 Z
M 673.975 622.131
C 673.608 628.499 675.461 635.926 680.161 640.441
C 689.074 649.004 703.607 646.473 709.402 635.778
C 711.237 632.39 711.902 628.569 712.116 624.765
C 712.483 618.24 710.633 611.614 705.883 606.944
C 697.197 598.406 682.807 600.298 676.886 610.968
C 674.95 614.456 674.202 618.185 673.975 622.131 Z"
opacity="1" fill="rgb(15,38,74)" fill-rule="evenodd" />
<path d="
M 743.479 617.603
C 744.511 610.501 746.42 603.732 750.742 597.844
C 759.496 585.917 776.004 579.901 789.835 586.517
C 794.277 588.642 797.451 591.938 800.681 595.542
C 800.374 592.386 800.769 588.967 800.728 585.773
C 807.208 585.752 813.78 585.425 820.249 585.704
C 819.809 592.96 820.052 600.293 820.098 607.553
C 820.181 620.417 820.239 633.298 820.067 646.161
C 819.957 654.365 820.173 662.528 817.453 670.4
C 812.562 684.553 798.614 691.471 784.443 692.434
C 778.76 692.82 772.849 692.326 767.342 690.825
C 759.106 688.58 752.857 684.328 746.293 679.094
C 746.69 677.796 748.555 676.641 749.506 675.623
C 752.284 672.649 754.885 669.259 757.864 666.508
C 762.25 668.729 765.834 672.094 770.589 673.807
C 780.422 677.348 793.544 676.56 798.562 666.01
C 799.385 664.281 799.978 662.497 800.256 660.599
C 800.822 656.742 800.856 652.674 800.634 648.79
C 799.301 649.852 798.25 651.603 796.987 652.828
C 794.501 655.239 791.149 657.558 787.833 658.647
C 784.282 659.814 780.402 660.3 776.67 660.246
C 773.46 660.2 770.21 659.76 767.157 658.754
C 749.727 653.009 741.722 635.033 743.479 617.603 Z
M 763.456 620.123
C 762.924 626.672 764.929 634.965 770.213 639.282
C 776.835 644.693 788.052 644.705 794.536 638.971
C 798.619 635.361 800.873 629.877 801.27 624.512
C 801.745 618.095 800.091 611.001 795.464 606.293
C 788.502 599.208 776.328 599.329 769.391 606.25
C 765.694 609.939 763.872 615.003 763.456 620.123 Z"
opacity="1" fill="rgb(15,37,73)" fill-rule="evenodd" />
<path d="
M 832.459 620.613
C 833.595 611.286 836.109 602.673 842.624 595.547
C 855.584 581.372 879.569 579.768 893.886 592.706
C 904.36 602.171 906.211 616.018 906.27 629.324
C 900.878 629.007 895.404 629.427 890.005 629.428
C 877.394 629.429 864.783 629.483 852.182 629.695
C 853.499 641.664 864.909 648.446 876.284 646.111
C 882.025 644.932 886.049 641.591 890.485 638.044
C 893.57 640.837 896.842 643.417 900.214 645.853
C 900.62 646.146 903.355 647.928 903.227 648.176
C 887.763 666.956 857.226 668.121 841.153 649.428
C 838.162 645.949 835.897 641.745 834.359 637.429
C 832.458 632.099 832.006 626.227 832.459 620.613 Z
M 851.997 616.102
C 851.839 616.732 851.917 616.423 851.763 617.029
C 863.469 616.709 875.21 616.956 886.921 616.907
C 886.506 612.381 884.724 607.483 881.473 604.215
C 876.139 598.853 866.619 598.43 860.375 602.331
C 855.393 605.444 853.448 610.745 851.997 616.102 Z"
opacity="1" fill="rgb(15,38,74)" fill-rule="evenodd" />

</svg>